<svg width="80" height="73" viewBox="0 0 80 73" fill="none" xmlns="http://www.w3.org/2000/svg">
<path d="M52.6875 19.65C52.6412 12.4071 52.2725 8.48471 49.3354 5.926C45.9765 3 40.5708 3 29.7592 3H25.9367C15.1252 3 9.71905 3 6.36061 5.926C3.00179 8.85201 3.00178 13.5613 3.00178 22.98V49.62C3.00178 59.0386 3.00179 63.7479 6.36061 66.6739C9.71905 69.6 15.1252 69.6 25.9367 69.6H29.7592C40.5708 69.6 45.9765 69.6 49.3354 66.6739C52.2725 64.1152 52.6412 60.1927 52.6875 52.95" stroke="white" stroke-width="6" stroke-linecap="round"/>
<path d="M44.2286 35.2431H60.6143H77M77 35.2431L64.3143 25.2002M77 35.2431L64.3143 46.3431" stroke="white" stroke-width="6" stroke-linecap="round" stroke-linejoin="round"/>
</svg>
