<svg width="906" height="639" viewBox="0 0 906 639" fill="none" xmlns="http://www.w3.org/2000/svg">
<g clip-path="url(#clip0_291_87)">
<path d="M417.802 137.387H194.303C193.206 137.385 192.154 136.974 191.378 136.244C190.602 135.513 190.165 134.523 190.164 133.49V81.295C190.165 80.2619 190.602 79.2715 191.378 78.5411C192.154 77.8106 193.206 77.3997 194.303 77.3984H417.802C418.899 77.3997 419.951 77.8106 420.727 78.5411C421.503 79.2715 421.939 80.2619 421.941 81.295V133.49C421.939 134.523 421.503 135.513 420.727 136.244C419.951 136.974 418.899 137.385 417.802 137.387ZM194.303 78.957C193.645 78.9577 193.013 79.2043 192.548 79.6426C192.082 80.0809 191.82 80.6751 191.82 81.295V133.49C191.82 134.11 192.082 134.704 192.548 135.142C193.013 135.581 193.645 135.827 194.303 135.828H417.802C418.46 135.827 419.091 135.581 419.557 135.142C420.023 134.704 420.284 134.11 420.285 133.49V81.295C420.284 80.6751 420.023 80.0809 419.557 79.6426C419.091 79.2043 418.46 78.9577 417.802 78.9571L194.303 78.957Z" fill="white"/>
<path d="M229.031 121.261C238.343 121.261 245.891 114.154 245.891 105.388C245.891 96.622 238.343 89.5156 229.031 89.5156C219.72 89.5156 212.172 96.622 212.172 105.388C212.172 114.154 219.72 121.261 229.031 121.261Z" fill="#6C63FF"/>
<path d="M267.974 94.8066C267.229 94.8066 266.514 95.0854 265.987 95.5815C265.46 96.0776 265.164 96.7505 265.164 97.4521C265.164 98.1537 265.46 98.8266 265.987 99.3227C266.514 99.8188 267.229 100.097 267.974 100.097H400.442C401.187 100.097 401.902 99.8188 402.429 99.3227C402.956 98.8266 403.252 98.1537 403.252 97.4521C403.252 96.7505 402.956 96.0776 402.429 95.5815C401.902 95.0854 401.187 94.8066 400.442 94.8066H267.974Z" fill="#E6E6E6"/>
<path d="M267.974 110.68C267.229 110.68 266.514 110.958 265.987 111.455C265.46 111.951 265.164 112.624 265.164 113.325C265.164 114.027 265.46 114.7 265.987 115.196C266.514 115.692 267.229 115.971 267.974 115.971H324.975C325.345 115.971 325.711 115.903 326.052 115.771C326.394 115.638 326.704 115.443 326.965 115.197C327.227 114.952 327.434 114.66 327.576 114.339C327.717 114.017 327.79 113.673 327.79 113.325C327.79 112.977 327.717 112.633 327.576 112.312C327.434 111.99 327.227 111.699 326.965 111.453C326.704 111.207 326.394 111.012 326.052 110.88C325.711 110.747 325.345 110.679 324.975 110.68H267.974Z" fill="#E6E6E6"/>
<path d="M320.777 323.436H221.444C220.346 323.435 219.294 323.024 218.518 322.294C217.742 321.563 217.306 320.573 217.305 319.54V222.145C217.306 221.112 217.742 220.121 218.518 219.391C219.294 218.66 220.346 218.249 221.444 218.248H320.777C321.874 218.249 322.926 218.66 323.702 219.391C324.478 220.121 324.914 221.112 324.915 222.145V319.54C324.914 320.573 324.478 321.563 323.702 322.294C322.926 323.024 321.874 323.435 320.777 323.436ZM221.444 219.807C220.785 219.807 220.154 220.054 219.688 220.492C219.223 220.93 218.961 221.525 218.96 222.145V319.54C218.961 320.16 219.223 320.754 219.688 321.192C220.154 321.631 220.785 321.877 221.444 321.878H320.777C321.435 321.877 322.066 321.631 322.532 321.192C322.997 320.754 323.259 320.16 323.26 319.54V222.145C323.259 221.525 322.997 220.93 322.532 220.492C322.066 220.054 321.435 219.807 320.777 219.807H221.444Z" fill="white"/>
<path d="M242.607 238.334C241.862 238.334 241.147 238.613 240.62 239.109C240.093 239.605 239.797 240.278 239.797 240.979C239.797 241.681 240.093 242.354 240.62 242.85C241.147 243.346 241.862 243.625 242.607 243.625H299.608C300.353 243.625 301.068 243.346 301.595 242.85C302.122 242.354 302.418 241.681 302.418 240.979C302.418 240.278 302.122 239.605 301.595 239.109C301.068 238.613 300.353 238.334 299.608 238.334H242.607Z" fill="#E6E6E6"/>
<path d="M242.604 253.92C242.235 253.919 241.869 253.987 241.527 254.12C241.186 254.253 240.875 254.447 240.614 254.693C240.352 254.939 240.145 255.231 240.003 255.552C239.862 255.873 239.789 256.218 239.789 256.565C239.789 256.913 239.862 257.258 240.003 257.579C240.145 257.9 240.352 258.192 240.614 258.438C240.875 258.683 241.186 258.878 241.527 259.011C241.869 259.143 242.235 259.211 242.604 259.211H299.605C300.351 259.211 301.065 258.932 301.592 258.436C302.119 257.94 302.415 257.267 302.415 256.565C302.415 255.864 302.119 255.191 301.592 254.695C301.065 254.199 300.351 253.92 299.605 253.92H242.604Z" fill="#E6E6E6"/>
<path d="M271.109 303.352C267.611 303.352 264.191 302.376 261.283 300.546C258.374 298.716 256.107 296.116 254.768 293.073C253.43 290.03 253.079 286.682 253.762 283.452C254.444 280.222 256.129 277.255 258.602 274.926C261.076 272.597 264.227 271.011 267.658 270.369C271.089 269.726 274.646 270.056 277.878 271.316C281.11 272.577 283.872 274.711 285.815 277.449C287.759 280.188 288.796 283.407 288.796 286.701C288.791 291.115 286.926 295.348 283.61 298.47C280.294 301.591 275.798 303.347 271.109 303.352Z" fill="#6C63FF"/>
<path d="M483.498 0H582.831C583.929 0.00121305 584.981 0.412132 585.757 1.14262C586.532 1.8731 586.969 2.86351 586.97 3.89657V101.292C586.969 102.325 586.532 103.315 585.757 104.046C584.981 104.776 583.929 105.187 582.831 105.188H483.498C482.401 105.187 481.349 104.776 480.573 104.046C479.797 103.315 479.361 102.325 479.359 101.292V3.89657C479.361 2.86351 479.797 1.8731 480.573 1.14262C481.349 0.412132 482.401 0.00121305 483.498 0ZM582.831 103.63C583.49 103.629 584.121 103.382 584.587 102.944C585.052 102.506 585.314 101.912 585.315 101.292V3.89657C585.314 3.27672 585.052 2.68244 584.587 2.24414C584.121 1.80584 583.49 1.5593 582.831 1.55863H483.498C482.84 1.5593 482.209 1.80584 481.743 2.24414C481.277 2.68244 481.016 3.27672 481.015 3.89657V101.292C481.016 101.912 481.277 102.506 481.743 102.944C482.209 103.382 482.84 103.629 483.498 103.63H582.831Z" fill="white"/>
<path d="M561.663 85.1034C562.408 85.1034 563.123 84.8246 563.65 84.3285C564.177 83.8324 564.473 83.1595 564.473 82.4579C564.473 81.7563 564.177 81.0834 563.65 80.5873C563.123 80.0912 562.408 79.8125 561.663 79.8125H504.661C503.916 79.8125 503.202 80.0912 502.675 80.5873C502.148 81.0834 501.852 81.7563 501.852 82.4579C501.852 83.1595 502.148 83.8324 502.675 84.3285C503.202 84.8246 503.916 85.1034 504.661 85.1034H561.663Z" fill="#E6E6E6"/>
<path d="M561.663 69.5174C562.408 69.5174 563.123 69.2387 563.65 68.7426C564.177 68.2465 564.473 67.5736 564.473 66.872C564.473 66.1704 564.177 65.4975 563.65 65.0014C563.123 64.5053 562.408 64.2266 561.663 64.2266H504.661C503.916 64.2266 503.202 64.5053 502.675 65.0014C502.148 65.4975 501.852 66.1704 501.852 66.872C501.852 67.5736 502.148 68.2465 502.675 68.7426C503.202 69.2387 503.916 69.5174 504.661 69.5174H561.663Z" fill="#E6E6E6"/>
<path d="M533.164 20.084C536.662 20.084 540.082 21.0606 542.99 22.8903C545.899 24.72 548.166 27.3207 549.505 30.3634C550.843 33.4061 551.194 36.7542 550.511 39.9843C549.829 43.2145 548.144 46.1815 545.67 48.5103C543.197 50.8391 540.045 52.425 536.614 53.0675C533.183 53.71 529.627 53.3803 526.395 52.1199C523.163 50.8596 520.401 48.7253 518.457 45.9869C516.514 43.2486 515.477 40.0291 515.477 36.7357C515.482 32.3209 517.347 28.0884 520.663 24.9667C523.979 21.845 528.474 20.089 533.164 20.084Z" fill="#6C63FF"/>
<path d="M191.441 201.496C209.018 188.679 229.555 179.939 251.387 175.983C273.393 172.035 296.086 173.133 317.546 179.184C328.334 182.208 338.699 186.436 348.42 191.778C358.325 197.23 367.275 203.94 375.886 211.045C384.609 218.243 393.046 225.761 402.153 232.537C428.151 252.102 460.427 262.792 493.711 262.86C496.461 262.864 499.208 262.793 501.954 262.646C503.443 262.569 503.452 260.379 501.954 260.456C468.027 262.215 434.523 252.684 407.308 233.531C397.87 226.886 389.252 219.289 380.453 211.927C371.924 204.789 363.165 197.846 353.488 192.112C329.817 178.072 302.279 170.905 274.31 171.506C246.341 172.106 219.178 180.446 196.212 195.487C194.028 196.916 191.895 198.41 189.796 199.948C188.616 200.813 190.273 202.352 191.441 201.496Z" fill="white"/>
<path d="M190.205 212.08C196.881 212.08 202.292 206.985 202.292 200.7C202.292 194.415 196.881 189.32 190.205 189.32C183.529 189.32 178.117 194.415 178.117 200.7C178.117 206.985 183.529 212.08 190.205 212.08Z" fill="white"/>
<path d="M639.892 363.176C646.568 363.176 651.98 358.081 651.98 351.796C651.98 345.511 646.568 340.416 639.892 340.416C633.217 340.416 627.805 345.511 627.805 351.796C627.805 358.081 633.217 363.176 639.892 363.176Z" fill="white"/>
<path d="M703.216 286.97H505.983C504.885 286.968 503.833 286.557 503.057 285.827C502.282 285.097 501.845 284.106 501.844 283.073V186.457C501.845 185.424 502.282 184.434 503.057 183.703C503.833 182.973 504.885 182.562 505.983 182.561H703.216C704.313 182.562 705.365 182.973 706.141 183.703C706.917 184.434 707.354 185.424 707.355 186.457V283.073C707.354 284.106 706.917 285.097 706.141 285.827C705.365 286.558 704.313 286.968 703.216 286.97ZM505.983 184.119C505.324 184.12 504.693 184.366 504.227 184.805C503.762 185.243 503.5 185.837 503.499 186.457V283.073C503.5 283.693 503.762 284.287 504.227 284.725C504.693 285.164 505.324 285.41 505.983 285.411H703.216C703.874 285.41 704.506 285.164 704.971 284.725C705.437 284.287 705.699 283.693 705.699 283.073V186.457C705.699 185.837 705.437 185.243 704.971 184.805C704.506 184.366 703.874 184.12 703.216 184.119H505.983Z" fill="white"/>
<path d="M539.055 232.659C548.366 232.659 555.914 225.553 555.914 216.787C555.914 208.02 548.366 200.914 539.055 200.914C529.744 200.914 522.195 208.02 522.195 216.787C522.195 225.553 529.744 232.659 539.055 232.659Z" fill="#6C63FF"/>
<path d="M577.995 206.205C577.625 206.204 577.259 206.272 576.918 206.405C576.576 206.538 576.266 206.732 576.004 206.978C575.743 207.224 575.536 207.516 575.394 207.837C575.253 208.158 575.18 208.503 575.18 208.85C575.18 209.198 575.253 209.543 575.394 209.864C575.536 210.185 575.743 210.477 576.004 210.723C576.266 210.969 576.576 211.163 576.918 211.296C577.259 211.429 577.625 211.497 577.995 211.496H684.197C684.942 211.496 685.657 211.217 686.184 210.721C686.711 210.225 687.007 209.552 687.007 208.85C687.007 208.149 686.711 207.476 686.184 206.98C685.657 206.484 684.942 206.205 684.197 206.205H577.995Z" fill="#E6E6E6"/>
<path d="M577.995 222.078C577.625 222.077 577.259 222.145 576.918 222.278C576.576 222.411 576.266 222.606 576.004 222.851C575.743 223.097 575.536 223.389 575.394 223.71C575.253 224.031 575.18 224.376 575.18 224.724C575.18 225.071 575.253 225.416 575.394 225.737C575.536 226.058 575.743 226.35 576.004 226.596C576.266 226.842 576.576 227.036 576.918 227.169C577.259 227.302 577.625 227.37 577.995 227.369H634.996C635.741 227.369 636.456 227.09 636.983 226.594C637.51 226.098 637.806 225.425 637.806 224.724C637.806 224.022 637.51 223.349 636.983 222.853C636.456 222.357 635.741 222.078 634.996 222.078H577.995Z" fill="#E6E6E6"/>
<path d="M526.127 247.453C523.989 247.453 522.25 248.64 522.25 250.099C522.25 251.557 523.989 252.744 526.127 252.744H682.626C684.763 252.744 686.503 251.557 686.503 250.099C686.503 248.64 684.763 247.453 682.626 247.453H526.127Z" fill="#E6E6E6"/>
<path d="M526.127 263.326C523.989 263.326 522.25 264.513 522.25 265.972C522.25 267.43 523.989 268.617 526.127 268.617H682.626C684.763 268.617 686.503 267.43 686.503 265.972C686.503 264.513 684.763 263.326 682.626 263.326H526.127Z" fill="#E6E6E6"/>
<path d="M480.894 362.047C492.713 357.546 505.909 361.47 517.05 365.619C522.788 367.756 528.464 370.036 534.402 371.723C539.397 373.139 544.513 374.203 549.7 374.906C560.111 376.306 570.698 376.363 581.127 375.075C591.609 373.792 601.825 371.184 611.456 367.333C621.034 363.522 629.887 358.441 637.704 352.268C638.699 351.479 639.674 350.672 640.63 349.847C641.768 348.869 640.02 347.336 638.883 348.314C631.355 354.756 622.713 360.112 613.277 364.182C603.88 368.239 593.857 371.065 583.527 372.572C573.163 374.106 562.595 374.266 552.177 373.047C546.98 372.43 541.847 371.451 536.827 370.118C531.062 368.472 525.406 366.543 519.886 364.342C508.641 360.103 496.148 355.951 483.792 358.875C482.376 359.219 480.99 359.653 479.647 360.174C478.192 360.728 479.448 362.598 480.894 362.047Z" fill="white"/>
<path d="M475 389H393L412.297 353.311C412.643 352.671 413.141 352.14 413.74 351.771C414.339 351.402 415.018 351.207 415.71 351.207C416.402 351.207 417.081 351.402 417.68 351.771C418.28 352.14 418.777 352.671 419.123 353.311L427.366 368.557L441.383 342.634C441.816 341.833 442.439 341.168 443.189 340.706C443.939 340.243 444.79 340 445.656 340C446.522 340 447.373 340.243 448.123 340.706C448.873 341.168 449.496 341.833 449.929 342.634L475 389Z" fill="#6C63FF"/>
<path d="M474.308 389H385.692C384.713 388.999 383.775 388.588 383.083 387.857C382.39 387.127 382.001 386.136 382 385.103V332.897C382.001 331.864 382.39 330.873 383.083 330.143C383.775 329.412 384.713 329.001 385.692 329H474.308C475.287 329.001 476.225 329.412 476.917 330.143C477.609 330.873 477.999 331.864 478 332.897V385.103C477.999 386.136 477.609 387.127 476.917 387.857C476.225 388.588 475.287 388.999 474.308 389ZM385.692 330.559C385.105 330.56 384.542 330.806 384.126 331.245C383.711 331.683 383.478 332.277 383.477 332.897V385.103C383.478 385.723 383.711 386.317 384.126 386.755C384.542 387.194 385.105 387.44 385.692 387.441H474.308C474.895 387.44 475.458 387.194 475.874 386.755C476.289 386.317 476.522 385.723 476.523 385.103V332.897C476.522 332.277 476.289 331.683 475.874 331.245C475.458 330.806 474.895 330.56 474.308 330.559H385.692Z" fill="white"/>
<path d="M680.747 343.3L663.041 351.765C656.721 354.786 650.622 354.27 648.287 347.969C647.731 346.47 647.526 344.876 647.685 343.295C647.845 341.714 648.365 340.185 649.211 338.811C650.056 337.437 651.207 336.251 652.585 335.335C653.963 334.419 655.534 333.793 657.192 333.502L674.02 330.544L746.09 308.033L789.748 278.889L805.751 302.893L755.306 328.52L680.747 343.3Z" fill="#FFB8B8"/>
<path d="M763.399 624.269L749.852 622.143L751.357 598.053H765.657L763.399 624.269Z" fill="#FFB8B8"/>
<path d="M894.877 600.739L881.766 604.589L871.578 582.446L884.342 576.379L894.877 600.739Z" fill="#FFB8B8"/>
<path d="M887.577 579.632L871.02 586.009L791.998 488.231L767.162 603.013L750.605 600.179C739.984 501.221 731.323 400.285 741.95 352.546L803.286 350.066L831.132 433.674L844.679 490.356L887.577 579.632Z" fill="#2F2E41"/>
<path d="M762.653 643.752C760.176 644.252 757.594 643.994 755.284 643.015L747.237 639.606C740.489 639.279 735.894 640.545 732.137 635.929C731.078 634.61 730.412 633.047 730.21 631.404C730.008 629.761 730.276 628.096 730.988 626.584C731.693 625.066 732.815 623.753 734.238 622.778C735.661 621.803 737.333 621.202 739.084 621.038L750.137 614.48L750.718 619.396C755.769 622.091 761.767 620.927 768.123 618.304L771.592 629.735C772.039 631.209 772.16 632.754 771.947 634.274C771.734 635.793 771.191 637.256 770.353 638.57C769.515 639.884 768.399 641.022 767.075 641.914C765.75 642.805 764.245 643.431 762.653 643.752Z" fill="#2F2E41"/>
<path d="M900.243 620.304C898.073 621.534 895.542 622.079 893.019 621.859L884.232 621.095C877.738 622.849 873.828 625.451 868.683 622.234C867.226 621.31 866.057 620.036 865.299 618.543C864.541 617.051 864.221 615.395 864.372 613.747C864.516 612.095 865.124 610.51 866.134 609.153C867.143 607.796 868.518 606.717 870.117 606.026L878.31 596.445L880.554 600.917C886.261 601.921 891.532 598.986 896.639 594.562L903.863 604.314C904.794 605.571 905.441 606.995 905.764 608.498C906.087 610 906.078 611.549 905.739 613.048C905.399 614.548 904.736 615.965 903.791 617.213C902.846 618.461 901.638 619.513 900.243 620.304Z" fill="#2F2E41"/>
<path d="M780.707 249.454C795.67 249.454 807.8 238.034 807.8 223.947C807.8 209.859 795.67 198.439 780.707 198.439C765.743 198.439 753.613 209.859 753.613 223.947C753.613 238.034 765.743 249.454 780.707 249.454Z" fill="#FFB8B8"/>
<path d="M813.821 277.795L778.449 270.71L773.934 243.077L798.769 238.117L813.821 277.795Z" fill="#FFB8B8"/>
<path d="M804.038 353.609H740.82L755.07 319.928C754.034 308.339 759.252 299.815 766.719 292.394L776.192 270.002C791.499 260.518 803.039 261.226 815.327 273.545C829.897 292.966 819.812 322.16 804.038 353.609Z" fill="#6C63FF"/>
<path d="M775.44 425.171L773.642 443.79C773 450.435 769.294 455.024 762.384 453.537C760.74 453.183 759.196 452.499 757.859 451.532C756.522 450.564 755.422 449.336 754.636 447.931C753.849 446.527 753.395 444.979 753.303 443.393C753.211 441.807 753.484 440.222 754.103 438.745L760.388 423.754L778.45 354.318L775.44 304.012H805.544L801.781 357.86L775.44 425.171Z" fill="#FFB8B8"/>
<path d="M807.803 305.429H773.184L775.611 284.167C775.77 280.49 777.384 277.002 780.135 274.387C782.887 271.773 786.577 270.222 790.481 270.038C792.55 269.941 794.619 270.23 796.569 270.891C798.518 271.551 800.308 272.569 801.837 273.885C803.366 275.201 804.602 276.79 805.474 278.559C806.346 280.328 806.837 282.242 806.918 284.191L807.803 305.429Z" fill="#6C63FF"/>
<path d="M814.238 197.72C819.863 197.72 824.422 193.427 824.422 188.132C824.422 182.837 819.863 178.545 814.238 178.545C808.614 178.545 804.055 182.837 804.055 188.132C804.055 193.427 808.614 197.72 814.238 197.72Z" fill="#2F2E41"/>
<path d="M803.746 185.785C803.914 183.353 805.059 181.072 806.951 179.407C808.842 177.742 811.336 176.819 813.925 176.824C813.715 176.799 813.506 176.769 813.292 176.756C810.598 176.594 807.945 177.446 805.918 179.125C803.891 180.804 802.655 183.172 802.482 185.709C802.309 188.245 803.212 190.743 804.995 192.652C806.777 194.562 809.291 195.727 811.985 195.891C812.2 195.904 812.41 195.899 812.622 195.899C810.054 195.593 807.706 194.377 806.057 192.497C804.408 190.618 803.581 188.218 803.746 185.785Z" fill="#2F2E41"/>
<path d="M803.691 189.878C794.608 182.785 768.558 191.8 766.877 196.569C754.596 198.145 745.297 204.891 745.297 216.886C752.599 219.702 760.903 219.355 769.88 216.886C784.19 227.865 785.171 241.667 776.469 257.52L787.175 257.722L800.447 239.461L801.081 257.984L825.624 257.52V230.975C825.703 222.15 823.546 213.433 819.33 205.55C815.505 198.555 809.57 194.47 803.691 189.878Z" fill="#2F2E41"/>
<path d="M780.835 236.777C783.524 236.777 785.705 233.903 785.705 230.358C785.705 226.813 783.524 223.939 780.835 223.939C778.145 223.939 775.965 226.813 775.965 230.358C775.965 233.903 778.145 236.777 780.835 236.777Z" fill="#FFB8B8"/>
<path d="M168.094 238.504C168.094 238.504 171.025 190.735 186.244 201.589C201.462 212.443 179.598 242.934 179.598 242.934L168.094 238.504Z" fill="#FFB9B9"/>
<path d="M111.477 380.199C111.477 380.199 145.283 415.929 126.369 418.385C107.456 420.841 100.016 384.725 100.016 384.725L111.477 380.199Z" fill="#FFB9B9"/>
<path d="M67.3614 211.074C71.6043 212.125 75.4228 214.333 78.3372 217.421C81.2517 220.508 83.1322 224.338 83.7426 228.428L94.4958 300.485L109.57 357.963C109.57 357.963 117.108 364.35 114.093 367.898C111.078 371.446 117.861 386.348 117.861 386.348L99.0181 392.024C99.0181 392.024 96.7569 377.123 92.9883 376.413C89.6763 375.789 52.6006 282.545 43.6639 259.956C42.4316 256.841 41.7344 255.07 41.7344 255.07C41.7344 255.07 43.2419 207.526 67.3614 211.074Z" fill="#575A89"/>
<path d="M70.804 586.842L82.3781 606.152C91.3411 624.168 83.3762 627.44 61.4 618.51L56.3906 595.709L70.804 586.842Z" fill="#FFB9B9"/>
<path d="M76.6462 612.505C76.6462 612.505 82.1406 604.083 84.1278 605.493C86.1151 606.903 94.3118 613.011 94.3118 613.011L104.988 622.638C104.988 622.638 141.06 626.229 118.139 638.128C95.2186 650.026 82.5519 640.161 82.5519 640.161C82.5519 640.161 50.4493 641.732 50.9671 633.3C51.485 624.868 61.8383 611.527 61.8383 611.527C61.8383 611.527 74.887 619.763 76.6462 612.505Z" fill="#2F2E41"/>
<path d="M19.4453 368.569L30.2961 492.176C30.2961 492.176 30.6578 566.069 42.2319 580.37C53.806 594.672 54.1676 601.823 54.1676 601.823L78.0392 590.245C78.0392 590.245 65.7417 570.954 68.2736 568C69.8342 566.127 70.9448 563.958 71.5288 561.642L65.0183 485.366L77.3158 352.564L19.4453 368.569Z" fill="#2F2E41"/>
<path d="M49.1025 586.842L38.9752 612.04L16.0078 603L28.1247 584.117L49.1025 586.842Z" fill="#FFB9B9"/>
<path d="M32.2067 603.552C32.2067 603.552 40.8206 598.483 41.8974 600.511C42.9741 602.538 47.2811 611.155 47.2811 611.155L52.1265 623.826C52.1265 623.826 81.737 641.566 56.4335 642.58C31.1299 643.593 24.6695 629.908 24.6695 629.908C24.6695 629.908 -3.86424 618.251 0.442767 611.155C4.74977 604.059 19.8242 596.699 19.8242 596.699C19.8242 596.699 27.3614 609.127 32.2067 603.552Z" fill="#2F2E41"/>
<path d="M111.315 368.911L117.102 482.644C117.102 482.644 64.295 585.48 58.5079 588.204C56.7835 589.042 55.2549 590.197 54.0125 591.601C52.7701 593.005 51.8389 594.628 51.2741 596.376L19.4453 588.885L33.913 567.092L65.7418 494.221C65.7418 494.221 70.8054 492.178 72.2522 485.368C73.699 478.558 76.5925 478.557 69.3587 477.195C62.1249 475.833 62.1249 469.023 62.1249 469.023L38.2532 365.506L111.315 368.911Z" fill="#2F2E41"/>
<path d="M113.836 167.601C116.396 152.751 105.684 138.758 89.9096 136.348C74.1354 133.938 59.2728 144.023 56.713 158.874C54.1532 173.725 64.8656 187.717 80.6397 190.127C96.4139 192.537 111.276 182.452 113.836 167.601Z" fill="#FFB9B9"/>
<path d="M59.5935 164.941C59.5935 164.941 57.4234 199.674 54.5299 203.079C51.6364 206.484 84.9119 205.803 84.9119 205.803C84.9119 205.803 82.7418 176.519 84.9119 173.795C87.082 171.071 59.5935 164.941 59.5935 164.941Z" fill="#FFB9B9"/>
<path d="M113.484 376.402C113.484 376.402 31.7418 369.593 16.5547 376.402C16.5547 376.402 22.1455 356.876 20.7009 354.836C19.6503 353.343 22.5489 297.723 21.639 265.639C21.123 247.534 16.686 229.854 29.5843 216.412C33.9744 211.846 38.8711 208.013 44.0398 206.141C44.0398 206.141 42.5952 193.203 49.8276 192.523C49.8276 192.523 77.3221 189.794 87.4437 197.972C90.68 200.569 92.7156 208.482 92.9314 215.299C87.9221 238.491 89.6951 264.226 94.2915 290.923C94.573 292.619 94.8825 294.323 95.1921 296.027C100.07 322.504 107.443 349.802 113.484 376.402Z" fill="#575A89"/>
<path d="M70.1525 171.265C72.5995 171.128 74.9889 171.907 77.419 172.21C86.1132 173.297 95.1578 167.357 97.0774 159.301C97.2313 158.228 97.5709 157.186 98.0829 156.216C99.4209 154.16 102.468 153.767 104.98 154.24C107.493 154.713 109.874 155.82 112.432 155.947C116.382 156.142 120.175 153.852 122.28 150.7C124.269 147.447 125.115 143.685 124.697 139.953L122.803 141.824C122.034 140.291 121.737 138.586 121.946 136.902C120.942 136.651 119.887 136.646 118.881 136.888C117.875 137.131 116.952 137.612 116.2 138.287C114.53 138.454 115.79 135.371 114.55 134.305C113.946 133.956 113.227 133.83 112.531 133.95C108.979 133.982 106.105 131.424 103.306 129.365C98.4558 125.805 92.7841 123.369 86.7493 122.255C82.7382 121.518 78.4728 121.4 74.6688 122.806C71.598 124.104 68.8266 125.955 66.5106 128.254C60.5551 133.646 55.2814 139.981 52.8037 147.401C50.7895 153.479 50.7324 159.983 52.6398 166.091C53.6381 169.264 56.6469 180.128 61.0517 180.381C66.5864 180.699 63.2634 171.652 70.1525 171.265Z" fill="#2F2E41"/>
<path d="M82.1282 214.416L92.4948 215.462C92.4948 215.462 102.671 234.049 101.932 237.926C101.193 241.803 99.5836 239.449 104.164 245.652C108.744 251.854 121.741 267.887 123.35 270.241C124.96 272.595 168.835 241.078 166.108 231.635C166.108 231.635 179.965 240.995 185.902 242.24C185.902 242.24 140.684 298.071 134.383 305.216C128.082 312.361 123.01 310.893 114.351 306.657C105.691 302.421 61.8828 260.165 61.8828 260.165L82.1282 214.416Z" fill="#575A89"/>
<path opacity="0.1" d="M95.187 296.028L59.1562 262.106L68.2742 259.307L94.2865 290.923C94.568 292.619 94.8775 294.323 95.187 296.028Z" fill="black"/>
</g>
<defs>
<clipPath id="clip0_291_87">
<rect width="906" height="644" fill="white"/>
</clipPath>
</defs>
</svg>
