<svg width="55" height="51" viewBox="0 0 55 51" fill="none" xmlns="http://www.w3.org/2000/svg">
<path d="M35.918 14.3029C35.8874 9.51268 35.6435 6.91847 33.701 5.2262C31.4795 3.29102 27.9043 3.29102 20.7538 3.29102H18.2257C11.0752 3.29102 7.49968 3.29102 5.27849 5.2262C3.05705 7.16139 3.05704 10.276 3.05704 16.5053V34.1243C3.05704 40.3536 3.05705 43.4682 5.27849 45.4034C7.49968 47.3386 11.0752 47.3386 18.2257 47.3386H20.7538C27.9043 47.3386 31.4795 47.3386 33.701 45.4034C35.6435 43.7111 35.8874 41.1169 35.918 36.3267" stroke="#432683" stroke-width="6" stroke-linecap="round"/>
<path d="M30.3258 24.6157H41.1629H52M52 24.6157L43.61 17.9736M52 24.6157L43.61 31.957" stroke="#432683" stroke-width="6" stroke-linecap="round" stroke-linejoin="round"/>
</svg>
