<svg width="281" height="52" viewBox="0 0 281 52" fill="none" xmlns="http://www.w3.org/2000/svg">
<path d="M58 36L62 40C61.16 41.04 60.16 41.96 59 42.8C56.96 44.2 54 45.6 50 45.6C41.36 45.6 34.8 39 34.8 31C34.8 23 41.36 16.4 50 16.4C53.88 16.4 56.88 17.8 58.84 19.2C60 20.04 60.96 20.96 61.8 22L57.8 26C57.2 25.24 56.52 24.6 55.76 24C54.44 23 52.52 22 50 22C45 22 41 26 41 31C41 36 45 40 50 40C52.6 40 54.56 39 55.96 38C56.76 37.4 57.44 36.76 58 36ZM74.2141 40.4C77.0141 40.4 79.2141 38.2 79.2141 35.2C79.2141 32.2 77.0141 30 74.2141 30C71.4141 30 69.2141 32.2 69.2141 35.2C69.2141 38.2 71.4141 40.4 74.2141 40.4ZM63.8141 35.2C63.8141 29.6 68.4141 25 74.2141 25C80.0141 25 84.6141 29.6 84.6141 35.2C84.6141 40.8 80.0141 45.4 74.2141 45.4C68.4141 45.4 63.8141 40.8 63.8141 35.2ZM88.6078 45V25.4H94.0078V28.2H94.2078C94.6478 27.6 95.1278 27.08 95.6878 26.6C96.6478 25.8 98.0878 25 100.008 25C104.008 25 107.208 28.2 107.208 33.2V45H101.808V34C101.808 31.6 100.448 30.2 98.2078 30.2C95.8078 30.2 94.0078 32 94.0078 34.6V45H88.6078ZM112.397 45V25.4H117.797V28.2H117.997C118.437 27.6 118.917 27.08 119.477 26.6C120.437 25.8 121.877 25 123.797 25C127.797 25 130.997 28.2 130.997 33.2V45H125.597V34C125.597 31.6 124.237 30.2 121.997 30.2C119.597 30.2 117.797 32 117.797 34.6V45H112.397ZM150.986 38.4L153.786 42.2C153.186 42.8 152.466 43.32 151.626 43.8C150.186 44.6 148.106 45.4 145.386 45.4C139.586 45.4 134.986 40.8 134.986 35.2C134.986 29.6 139.586 25 145.186 25C150.586 25 154.986 29.4 154.986 34.8C154.986 35.56 154.906 36.08 154.866 36.52L154.786 37.2H140.586C141.186 39 142.786 40.6 145.786 40.6C147.506 40.6 148.746 40.12 149.666 39.52C150.186 39.2 150.626 38.84 150.986 38.4ZM140.586 33.2H149.386C148.786 31.4 147.226 29.8 144.986 29.8C142.746 29.8 141.186 31.4 140.586 33.2ZM155.808 45L162.808 35L156.208 25.4H162.408L166.128 31.4H166.288L170.008 25.4H176.208L169.608 35L176.608 45H170.408L166.288 38.6H166.128L162.008 45H155.808ZM178.998 45V25.4H184.398V45H178.998ZM178.598 19.8C178.598 18.2 179.998 16.8 181.718 16.8C183.438 16.8 184.798 18.2 184.798 19.8C184.798 21.4 183.398 22.8 181.678 22.8C179.958 22.8 178.598 21.4 178.598 19.8ZM198.784 40.4C201.584 40.4 203.784 38.2 203.784 35.2C203.784 32.2 201.584 30 198.784 30C195.984 30 193.784 32.2 193.784 35.2C193.784 38.2 195.984 40.4 198.784 40.4ZM188.384 35.2C188.384 29.6 192.984 25 198.784 25C204.584 25 209.184 29.6 209.184 35.2C209.184 40.8 204.584 45.4 198.784 45.4C192.984 45.4 188.384 40.8 188.384 35.2ZM213.178 45V25.4H218.578V28.2H218.778C219.218 27.6 219.698 27.08 220.258 26.6C221.218 25.8 222.658 25 224.578 25C228.578 25 231.778 28.2 231.778 33.2V45H226.378V34C226.378 31.6 225.018 30.2 222.778 30.2C220.378 30.2 218.578 32 218.578 34.6V45H213.178Z" fill="white"/>
<circle cx="21.152" cy="31.3845" r="5.76923" fill="white"/>
<path d="M14.2302 11H8.46094C15.384 26.3846 33.4609 19.0769 34.9994 11H28.8456C22.9994 16.8462 16.6661 13.4359 14.2302 11Z" fill="white"/>
<path d="M13.4606 51.541H7.69141C14.6145 36.1564 32.6914 43.4641 34.2299 51.541H28.076C22.2299 45.6949 15.8965 49.1051 13.4606 51.541Z" fill="white"/>
<path d="M0 38.6917L0 44.4609C15.3846 37.5379 8.07692 19.4609 0 17.9225L0 24.0763C5.84615 29.9225 2.4359 36.2558 0 38.6917Z" fill="white"/>
</svg>
