<svg width="42" height="42" viewBox="0 0 42 42" fill="none" xmlns="http://www.w3.org/2000/svg">
<path fill-rule="evenodd" clip-rule="evenodd" d="M35.9498 3.89873C33.9702 1.91918 30.7607 1.91917 28.7811 3.89873L4.85974 27.8202C4.15211 28.5279 3.66976 29.4291 3.47351 30.4103L2.48157 35.3701C2.00865 37.7346 4.09341 39.8195 6.45798 39.3465L11.4177 38.3545C12.399 38.1584 13.3003 37.676 14.0079 36.9684L37.9293 13.0469C39.9089 11.0673 39.9089 7.85784 37.9293 5.87828L35.9498 3.89873ZM31.1706 6.28826C31.8306 5.62841 32.9003 5.62841 33.5603 6.28826L35.5398 8.26782C36.1997 8.92767 36.1997 9.99749 35.5398 10.6573L31.0257 15.1714L26.6567 10.8023L31.1706 6.28826ZM24.267 13.1919L7.24927 30.2097C7.01339 30.4456 6.85262 30.746 6.7872 31.0731L5.79525 36.0328L10.755 35.0408C11.0821 34.9754 11.3825 34.8147 11.6184 34.5788L28.6362 17.5609L24.267 13.1919Z" fill="white"/>
</svg>
