<svg width="300" height="52" viewBox="0 0 300 52" fill="none" xmlns="http://www.w3.org/2000/svg">
<path d="M36.6 45V17H42.6V45H36.6ZM49.8031 45V17H55.2031L68.8031 34.4V17H74.8031V45H69.4031L55.8031 27.6V45H49.8031ZM79.1906 41.2L83.1906 37.2C83.6706 37.76 84.2306 38.28 84.9106 38.72C86.0306 39.48 87.6706 40.2 89.7906 40.2C92.9906 40.2 94.3906 38.8 94.3906 37C94.3906 32.24 80.3906 34.36 80.3906 24.6C80.3906 20.2 84.1906 16.4 90.5906 16.4C93.6706 16.4 96.0706 17.36 97.6306 18.32C98.5506 18.88 99.3106 19.52 99.9906 20.2L95.9906 24.2C95.5506 23.76 95.1106 23.36 94.5906 23C93.6706 22.4 92.3906 21.8 90.7906 21.8C87.7506 21.8 86.5906 23 86.5906 24.6C86.5906 29.36 100.591 27.24 100.591 37C100.591 41.6 96.5906 45.6 89.9906 45.6C86.3506 45.6 83.6706 44.52 81.8706 43.4C80.7906 42.76 79.9106 42.04 79.1906 41.2ZM126.789 36L130.789 40C129.949 41.04 128.949 41.96 127.789 42.8C125.749 44.2 122.789 45.6 118.789 45.6C110.149 45.6 103.589 39 103.589 31C103.589 23 110.149 16.4 118.789 16.4C122.669 16.4 125.669 17.8 127.629 19.2C128.789 20.04 129.749 20.96 130.589 22L126.589 26C125.989 25.24 125.309 24.6 124.549 24C123.229 23 121.309 22 118.789 22C113.789 22 109.789 26 109.789 31C109.789 36 113.789 40 118.789 40C121.389 40 123.349 39 124.749 38C125.549 37.4 126.229 36.76 126.789 36ZM135.194 45V17H147.594C153.594 17 157.394 20.8 157.394 26.4C157.394 29.6 156.234 31.68 154.994 32.92C154.314 33.64 153.514 34.2 152.594 34.6L158.394 45H151.794L146.794 35.8H141.194V45H135.194ZM141.194 30.2H147.394C149.634 30.2 151.194 28.64 151.194 26.4C151.194 24.16 149.634 22.6 147.394 22.6H141.194V30.2ZM163.397 45V17H169.397V45H163.397ZM176.6 45V17H188.4C194.36 17 198.4 20.96 198.4 26.4C198.4 31.84 194.36 35.8 188.4 35.8H182.6V45H176.6ZM182.6 30.2H188.2C190.6 30.2 192.2 28.64 192.2 26.4C192.2 24.16 190.6 22.6 188.2 22.6H182.6V30.2ZM208.988 45V22.6H200.988V17H222.988V22.6H214.988V45H208.988ZM227.381 45V17H233.381V45H227.381ZM244.984 31C244.984 36 248.984 40 253.984 40C258.984 40 262.984 36 262.984 31C262.984 26 258.984 22 253.984 22C248.984 22 244.984 26 244.984 31ZM238.784 31C238.784 23 245.344 16.4 253.984 16.4C262.624 16.4 269.184 23 269.184 31C269.184 39 262.624 45.6 253.984 45.6C245.344 45.6 238.784 39 238.784 31ZM274.569 45V17H279.969L293.569 34.4V17H299.569V45H294.169L280.569 27.6V45H274.569Z" fill="#432683"/>
<circle cx="21.152" cy="31.3845" r="5.76923" fill="#432683"/>
<path d="M14.2302 11H8.46094C15.384 26.3846 33.4609 19.0769 34.9994 11H28.8456C22.9994 16.8462 16.6661 13.4359 14.2302 11Z" fill="#432683"/>
<path d="M13.4606 51.541H7.69141C14.6145 36.1564 32.6914 43.4641 34.2299 51.541H28.076C22.2299 45.6949 15.8965 49.1051 13.4606 51.541Z" fill="#432683"/>
<path d="M0 38.6917L0 44.4609C15.3846 37.5379 8.07692 19.4609 0 17.9225L0 24.0763C5.84615 29.9225 2.4359 36.2558 0 38.6917Z" fill="#432683"/>
</svg>
